<svg xmlns="http://www.w3.org/2000/svg" viewBox="0 0 36 36" enable-background="new 0 0 36 36"><style type="text/css">.st0{opacity:0.24;} .st1{fill:#FFFFFF;}</style><path class="st0" d="M32.5 18l2.8 5-7.9 4.4-4.4 7.9-5-2.8-5 2.8-4.4-7.9-7.9-4.4 2.8-5-2.8-5 7.9-4.4 4.4-7.9 5 2.8 5-2.8 4.4 7.9 7.9 4.4z"/><path class="st1" d="M15.6 22.2v-7.2h3c.8 0 1.3.1 1.7.2.3.1.6.4.8.7s.3.7.3 1.1c0 .5-.2 1-.5 1.3-.3.4-.8.6-1.4.7.3.2.6.4.8.6.2.2.5.6.8 1.2l.9 1.4h-1.7l-1-1.6c-.4-.6-.6-.9-.8-1.1l-.4-.3c-.2-.1-.4-.1-.7-.1h-.4v3h-1.4zm1.4-4.2h1.1c.7 0 1.1 0 1.3-.1s.3-.2.4-.3.1-.3.1-.5-.1-.4-.2-.6-.3-.2-.5-.3h-2.2v1.8z"/></svg>